<svg xmlns="http://www.w3.org/2000/svg" viewBox="0 0 300 100">
  <defs>
    <linearGradient id="grad1" x1="0%" y1="0%" x2="100%" y2="100%">
      <stop offset="0%" style="stop-color:#6366F1;stop-opacity:1" />
      <stop offset="100%" style="stop-color:#8B5CF6;stop-opacity:1" />
    </linearGradient>
  </defs>
  
  <!-- Background shape -->
  <rect x="10" y="10" rx="20" ry="20" width="280" height="80" fill="url(#grad1)" />
  
  <!-- Letter Z -->
  <path d="M40 30 L70 30 L40 70 L70 70" stroke="white" stroke-width="8" fill="none" stroke-linecap="round" stroke-linejoin="round" />
  
  <!-- Letter U -->
  <path d="M80 30 L80 60 Q80 70 90 70 L100 70 Q110 70 110 60 L110 30" stroke="white" stroke-width="8" fill="none" stroke-linecap="round" />
  
  <!-- Letter B -->
  <path d="M120 30 L120 70 M120 30 H140 Q155 30 155 40 T140 50 H120 M120 50 H140 Q160 50 160 60 T140 70 H120" stroke="white" stroke-width="8" fill="none" stroke-linecap="round" stroke-linejoin="round" />
  
  <!-- Letter E -->
  <path d="M170 30 L170 70 M170 30 H200 M170 50 H195 M170 70 H200" stroke="white" stroke-width="8" fill="none" stroke-linecap="round" />
  
  <!-- Letter R -->
  <path d="M210 30 L210 70 M210 30 H230 Q245 30 245 40 T230 50 H210 M230 50 L245 70" stroke="white" stroke-width="8" fill="none" stroke-linecap="round" stroke-linejoin="round" />
  
  <!-- Decorative element -->
  <circle cx="270" cy="50" r="10" fill="white" opacity="0.7" />
</svg>